<?xml version="1.0" standalone="no"?>
<!DOCTYPE svg PUBLIC "-//W3C//DTD SVG 20010904//EN"
 "http://www.w3.org/TR/2001/REC-SVG-20010904/DTD/svg10.dtd">
<svg version="1.0" xmlns="http://www.w3.org/2000/svg"
 width="1600.000000pt" height="1600.000000pt" viewBox="0 0 1600.000000 1600.000000"
 preserveAspectRatio="xMidYMid meet">
<metadata>
Created by potrace 1.11, written by Peter Selinger 2001-2013
</metadata>
<g transform="translate(0.000000,1600.000000) scale(0.100000,-0.100000)"
fill="#000000" stroke="none">
<path d="M11750 13054 c-172 -31 -270 -99 -580 -405 -224 -221 -588 -676 -835
-1043 -53 -78 -141 -205 -198 -282 -97 -135 -322 -465 -411 -604 -39 -62 -44
-66 -96 -77 -166 -38 -1451 -283 -1955 -373 -187 -34 -400 -72 -474 -85 -103
-19 -138 -22 -148 -13 -22 18 -146 186 -190 258 -203 327 -439 801 -698 1400
-158 366 -304 674 -361 761 -189 287 -523 370 -786 196 -136 -91 -192 -186
-248 -427 -12 -52 -47 -165 -77 -250 -116 -328 -215 -670 -312 -1075 -28 -115
-59 -241 -70 -280 -11 -38 -29 -113 -41 -165 -21 -92 -89 -346 -212 -790 -32
-118 -66 -238 -74 -266 l-14 -51 -180 -47 c-185 -49 -746 -210 -860 -248 -262
-85 -767 -290 -965 -391 -109 -56 -200 -146 -247 -247 -77 -162 -78 -307 -2
-467 88 -185 277 -304 482 -304 112 0 142 10 462 143 307 128 501 198 745 268
95 27 176 50 179 50 2 0 -4 -30 -15 -67 -86 -298 -335 -1204 -474 -1728 -58
-220 -135 -503 -170 -630 -35 -126 -105 -378 -155 -560 -114 -412 -243 -863
-465 -1625 -256 -879 -261 -899 -290 -1115 -36 -261 -42 -393 -22 -472 51
-195 209 -353 398 -398 211 -49 428 33 554 210 66 91 89 168 125 410 29 198
40 239 180 720 217 742 268 921 375 1305 116 416 414 1530 520 1945 166 649
376 1425 514 1900 117 400 125 426 142 435 16 9 328 85 636 154 206 47 458
100 955 201 l278 56 451 -448 c248 -246 487 -491 531 -543 98 -116 187 -249
261 -393 150 -290 309 -407 553 -407 93 0 175 22 294 77 197 93 455 455 1010
1418 105 182 594 1007 607 1024 4 6 89 21 513 96 492 86 630 108 635 103 7 -7
25 -1076 25 -1490 0 -388 10 -766 35 -1388 8 -195 17 -447 20 -560 3 -113 12
-349 20 -525 8 -176 17 -403 20 -505 40 -1275 51 -1454 121 -1879 40 -244 110
-645 124 -706 5 -22 19 -105 30 -185 24 -159 101 -553 126 -640 67 -235 257
-380 493 -380 185 1 351 104 435 272 53 104 69 219 63 435 -5 201 -36 414
-131 903 -149 771 -161 880 -186 1670 -6 184 -15 470 -20 635 -5 165 -14 464
-20 665 -6 201 -18 570 -26 820 -16 484 -38 3011 -26 3021 7 6 405 54 702 84
155 16 434 40 590 50 446 28 584 45 698 85 274 96 396 423 249 669 -42 69
-132 152 -201 185 -245 116 -877 116 -1875 0 -118 -13 -216 -22 -219 -19 -3 3
-13 112 -23 242 -50 649 -125 1156 -199 1343 -62 158 -202 282 -365 324 -64
16 -194 27 -235 20z m-276 -1890 c7 -104 9 -191 5 -194 -13 -9 -309 -53 -315
-47 -3 2 18 40 46 83 63 98 244 353 247 350 2 -2 9 -88 17 -192z m-5809 -819
c26 -49 88 -160 137 -246 48 -87 88 -161 88 -166 0 -5 -66 -22 -147 -38 -82
-15 -249 -50 -373 -76 -124 -26 -226 -46 -227 -45 -1 1 14 55 33 121 19 66 64
230 99 365 35 135 78 299 95 365 17 66 36 138 42 160 l10 39 97 -194 c53 -107
119 -235 146 -285z m3147 -1146 c-102 -176 -308 -525 -316 -536 -1 -1 -28 28
-60 65 -32 37 -151 162 -264 278 -113 116 -205 215 -204 219 1 7 962 205 970
200 1 -2 -55 -103 -126 -226z"/>
</g>
</svg>
